<svg xmlns="http://www.w3.org/2000/svg" viewBox="0 0 410 404"><path fill="#15B6FF" d="M399.56 59.525 215.035 388.85c-3.832 6.77-13.638 6.79-17.5.035L10.502 59.555c-4.048-7.05 1.061-15.92 9.167-15.8l185.27 2.802 185.314-2.816c8.122-.123 13.25 8.78 9.193 15.83Z"/><path fill="#FFDD35" d="M292.965.02 156.789 280.797l-2.185 4.356c-2.756 5.502-10.872 4.632-12.38-1.424L103.926 75.9 13.623 60.69C5.726 59.357 2.82 49.492 8.618 43.851L45.75 7.458Q46.32 6.906 46.926 6.4c157.85-48.3 198.69-6.52 246.04 17.13Z"/><path fill="#fff" d="M192.902 92.54h28.145c6.31 0 10.846 5.58 9.858 11.81l-18.435 117.6c-.87 5.56-5.65 9.66-11.28 9.66h-25.25c-7.09 0-11.904-6.42-10.27-13.34l22.72-96.52-64.32 2.85c-6.4.29-11.45-5.77-10.05-12.09l2.94-13.35c1.03-4.67 5.14-8.07 9.95-8.3Z"/></svg>